<svg xmlns="http://www.w3.org/2000/svg" viewBox="0 0 1160 168" width="1160" height="168" role="img">
  <style>
    .p:hover .bd { stroke: #73DACA; stroke-opacity: .55 }
    .bd { transition: stroke-opacity .35s ease, stroke .35s ease }
  </style>
  <g class="p">
  <rect x="0.5" y="0.5" width="1159" height="167" rx="8" fill="#11131A"/>
  <path d="M0.5 8.5 a8 8 0 0 1 8-8 H16 V167.5 H8.5 a8 8 0 0 1-8-8 Z" fill="#73DACA" opacity="0.75"/>
  <rect class="bd" x="0.5" y="0.5" width="1159" height="167" rx="8" fill="none" stroke="#232733" stroke-opacity="1"/>
  <text x="46" y="53" font-family="ui-monospace, 'JetBrains Mono', 'SF Mono', SFMono-Regular, Menlo, Consolas, monospace" font-size="19" font-weight="600" fill="#73DACA">blueMind</text>
  <text x="164.8" y="52" font-family="ui-monospace, 'JetBrains Mono', 'SF Mono', SFMono-Regular, Menlo, Consolas, monospace" font-size="13.5" fill="#565F89">// six marine ideas sharing one repository</text>
  <rect x="1073.3" y="38" width="40.7" height="20" rx="10" fill="#73DACA" opacity="0.10"/><text x="1093.65" y="52" text-anchor="middle" font-family="ui-monospace, 'JetBrains Mono', 'SF Mono', SFMono-Regular, Menlo, Consolas, monospace" font-size="11" fill="#73DACA" opacity="0.9">wip</text>
  <text x="46" y="84" font-family="-apple-system, BlinkMacSystemFont, 'Segoe UI', Inter, Roboto, sans-serif" font-size="14" fill="#A9B1D6" opacity="0.82">Fish recognition, pollution monitoring, marine flora, navigation, legal help.</text>
  <text x="46" y="105" font-family="-apple-system, BlinkMacSystemFont, 'Segoe UI', Inter, Roboto, sans-serif" font-size="14" fill="#A9B1D6" opacity="0.82">They did not all arrive at the same time, or finished.</text>
  <rect x="46" y="122" width="64.0" height="24" rx="5" fill="#161A23" stroke="#232733"/><text x="78.0" y="139" text-anchor="middle" font-family="ui-monospace, 'JetBrains Mono', 'SF Mono', SFMono-Regular, Menlo, Consolas, monospace" font-size="11.5" fill="#8B93B0">Python</text>
  <rect x="118.0" y="122" width="64.0" height="24" rx="5" fill="#161A23" stroke="#232733"/><text x="150.0" y="139" text-anchor="middle" font-family="ui-monospace, 'JetBrains Mono', 'SF Mono', SFMono-Regular, Menlo, Consolas, monospace" font-size="11.5" fill="#8B93B0">OpenCV</text>
  </g>
</svg>
